<svg width="30" height="32" viewBox="0 0 30 32" fill="none" xmlns="http://www.w3.org/2000/svg">
<g filter="url(#filter0_d_16584_47140)">
<path d="M16.3044 0H13.6956V1.9565H16.3044V0Z" fill="white"/>
<path d="M11.7391 3.91311H9.7826V5.86961H11.7391V3.91311Z" fill="white"/>
<path d="M9.7826 5.86961L7.82615 5.86963V7.82614H9.78265L9.7826 5.86961Z" fill="white"/>
<path d="M7.82615 7.82614H5.86963V9.78264H7.82615V7.82614Z" fill="white"/>
<path d="M5.86963 9.78264L3.91311 9.78259V11.7391H5.86962L5.86963 9.78264Z" fill="white"/>
<path d="M3.91311 11.7391L1.95651 11.7391V13.6956H3.91302L3.91311 11.7391Z" fill="white"/>
<path d="M1.95651 13.6956H0V15.6521H1.9565L1.95651 13.6956Z" fill="white"/>
<path d="M20.2174 0V3.91306H18.2609V5.86956H20.2174V7.82606H22.174V1.9565H24.1305V11.7391H26.087V0H20.2174Z" fill="white"/>
<path d="M18.2609 1.95651L16.3044 1.9565V3.91301L18.2609 3.91306L18.2609 1.95651Z" fill="white"/>
<path d="M13.6956 1.9565L11.7391 1.95651L11.7391 3.91311L13.6956 3.91301V1.9565Z" fill="white"/>
<path d="M28.0434 11.7391L26.087 11.7391L26.0869 13.6956H28.0434V11.7391Z" fill="white"/>
<path d="M30 13.6956H28.0434L28.0435 15.6521H30V13.6956Z" fill="white"/>
<path d="M26.0869 15.6522L26.0869 13.6956L24.1304 13.6957L24.1305 11.7391L22.1739 11.7392V9.78267H20.2174L20.2174 7.82606L18.2609 7.82611L18.2609 5.86956L16.3044 5.86961L16.3044 3.91301H13.6956L13.6957 5.86961H11.7391L11.7391 7.82611L9.78265 7.82614L9.78265 9.78267L7.82615 9.78264L7.82608 11.7392L5.86962 11.7391L5.86958 13.6957L3.91302 13.6956L3.91308 15.6522L1.9565 15.6521L1.95651 30H11.0869V18.2609H18.9131V30H28.0435L28.0435 15.6521L26.0869 15.6522Z" fill="white"/>
</g>
<defs>
<filter id="filter0_d_16584_47140" x="0" y="0" width="30" height="32" filterUnits="userSpaceOnUse" color-interpolation-filters="sRGB">
<feFlood flood-opacity="0" result="BackgroundImageFix"/>
<feColorMatrix in="SourceAlpha" type="matrix" values="0 0 0 0 0 0 0 0 0 0 0 0 0 0 0 0 0 0 127 0" result="hardAlpha"/>
<feOffset dy="2"/>
<feColorMatrix type="matrix" values="0 0 0 0 0 0 0 0 0 0 0 0 0 0 0 0 0 0 0.25 0"/>
<feBlend mode="normal" in2="BackgroundImageFix" result="effect1_dropShadow_16584_47140"/>
<feBlend mode="normal" in="SourceGraphic" in2="effect1_dropShadow_16584_47140" result="shape"/>
</filter>
</defs>
</svg>
